<svg width="1626" height="367" xmlns="http://www.w3.org/2000/svg" xmlns:xlink="http://www.w3.org/1999/xlink" xml:space="preserve" overflow="hidden"><defs><linearGradient x1="873.135" y1="144.425" x2="1014.73" y2="772.504" gradientUnits="userSpaceOnUse" spreadMethod="reflect" id="fill0"><stop offset="0" stop-color="#00CC99"/><stop offset="0.0222222" stop-color="#00CB98"/><stop offset="0.0444444" stop-color="#00CB98"/><stop offset="0.0666667" stop-color="#00CB98"/><stop offset="0.0888889" stop-color="#00CB98"/><stop offset="0.111111" stop-color="#00CB98"/><stop offset="0.133333" stop-color="#00CA98"/><stop offset="0.155556" stop-color="#00CA97"/><stop offset="0.177778" stop-color="#00CA97"/><stop offset="0.2" stop-color="#00C997"/><stop offset="0.222222" stop-color="#00C996"/><stop offset="0.244444" stop-color="#00C896"/><stop offset="0.266667" stop-color="#00C895"/><stop offset="0.288889" stop-color="#00C795"/><stop offset="0.311111" stop-color="#00C694"/><stop offset="0.333333" stop-color="#00C694"/><stop offset="0.355556" stop-color="#00C593"/><stop offset="0.377778" stop-color="#00C493"/><stop offset="0.4" stop-color="#00C392"/><stop offset="0.422222" stop-color="#00C291"/><stop offset="0.444444" stop-color="#00C191"/><stop offset="0.466667" stop-color="#00C090"/><stop offset="0.488889" stop-color="#00BF8F"/><stop offset="0.511111" stop-color="#00BE8E"/><stop offset="0.533333" stop-color="#00BD8D"/><stop offset="0.555556" stop-color="#00BC8D"/><stop offset="0.577778" stop-color="#00BB8C"/><stop offset="0.6" stop-color="#00BA8B"/><stop offset="0.622222" stop-color="#00B98A"/><stop offset="0.644444" stop-color="#00B789"/><stop offset="0.666667" stop-color="#00B688"/><stop offset="0.688889" stop-color="#00B587"/><stop offset="0.711111" stop-color="#00B386"/><stop offset="0.733333" stop-color="#00B284"/><stop offset="0.755556" stop-color="#00B083"/><stop offset="0.777778" stop-color="#00AF82"/><stop offset="0.8" stop-color="#00AD81"/><stop offset="0.822222" stop-color="#00AC80"/><stop offset="0.844444" stop-color="#00AA7E"/><stop offset="0.866667" stop-color="#00A87D"/><stop offset="0.888889" stop-color="#00A77C"/><stop offset="0.911111" stop-color="#00A57A"/><stop offset="0.933333" stop-color="#00A379"/><stop offset="0.955556" stop-color="#00A177"/><stop offset="0.977778" stop-color="#009F76"/><stop offset="1" stop-color="#009E75"/></linearGradient><linearGradient x1="1676.07" y1="307.071" x2="1801.93" y2="438.929" gradientUnits="userSpaceOnUse" spreadMethod="reflect" id="fill1"><stop offset="0" stop-color="#00CC99"/><stop offset="0.0222222" stop-color="#00CB98"/><stop offset="0.0444444" stop-color="#00CB98"/><stop offset="0.0666667" stop-color="#00CB98"/><stop offset="0.0888889" stop-color="#00CB98"/><stop offset="0.111111" stop-color="#00CB98"/><stop offset="0.133333" stop-color="#00CA98"/><stop offset="0.155556" stop-color="#00CA97"/><stop offset="0.177778" stop-color="#00CA97"/><stop offset="0.2" stop-color="#00C997"/><stop offset="0.222222" stop-color="#00C996"/><stop offset="0.244444" stop-color="#00C896"/><stop offset="0.266667" stop-color="#00C895"/><stop offset="0.288889" stop-color="#00C795"/><stop offset="0.311111" stop-color="#00C694"/><stop offset="0.333333" stop-color="#00C694"/><stop offset="0.355556" stop-color="#00C593"/><stop offset="0.377778" stop-color="#00C493"/><stop offset="0.4" stop-color="#00C392"/><stop offset="0.422222" stop-color="#00C291"/><stop offset="0.444444" stop-color="#00C191"/><stop offset="0.466667" stop-color="#00C090"/><stop offset="0.488889" stop-color="#00BF8F"/><stop offset="0.511111" stop-color="#00BE8E"/><stop offset="0.533333" stop-color="#00BD8D"/><stop offset="0.555556" stop-color="#00BC8D"/><stop offset="0.577778" stop-color="#00BB8C"/><stop offset="0.6" stop-color="#00BA8B"/><stop offset="0.622222" stop-color="#00B98A"/><stop offset="0.644444" stop-color="#00B789"/><stop offset="0.666667" stop-color="#00B688"/><stop offset="0.688889" stop-color="#00B587"/><stop offset="0.711111" stop-color="#00B386"/><stop offset="0.733333" stop-color="#00B284"/><stop offset="0.755556" stop-color="#00B083"/><stop offset="0.777778" stop-color="#00AF82"/><stop offset="0.8" stop-color="#00AD81"/><stop offset="0.822222" stop-color="#00AC80"/><stop offset="0.844444" stop-color="#00AA7E"/><stop offset="0.866667" stop-color="#00A87D"/><stop offset="0.888889" stop-color="#00A77C"/><stop offset="0.911111" stop-color="#00A57A"/><stop offset="0.933333" stop-color="#00A379"/><stop offset="0.955556" stop-color="#00A177"/><stop offset="0.977778" stop-color="#009F76"/><stop offset="1" stop-color="#009E75"/></linearGradient></defs><g transform="translate(-179 -277)"><path d="M816.581 425.464C809.431 425.464 802.831 427.206 796.781 430.689 790.731 434.173 785.827 439.26 782.068 445.952 778.31 452.643 776.431 460.573 776.431 469.739 776.431 478.906 778.31 486.927 782.068 493.802 785.827 500.677 790.777 505.948 796.918 509.614 803.06 513.281 809.614 515.114 816.581 515.114 823.731 515.114 830.422 513.327 836.656 509.752 842.889 506.177 847.839 501.043 851.506 494.352 855.172 487.66 857.006 479.639 857.006 470.289 857.006 460.939 855.172 452.919 851.506 446.227 847.839 439.535 842.889 434.402 836.656 430.827 830.422 427.252 823.731 425.464 816.581 425.464ZM1345.46 423.264C1335.92 423.264 1327.9 426.152 1321.39 431.927 1314.88 437.702 1310.9 445.723 1309.43 455.989L1381.76 455.989C1381.57 446.089 1378 438.16 1371.03 432.202 1364.06 426.243 1355.54 423.264 1345.46 423.264ZM670.006 394.114 708.506 394.114 708.506 571.489C708.506 588.356 704.335 600.502 695.993 607.927 687.652 615.352 675.689 619.064 660.106 619.064L643.056 619.064 643.056 586.339 654.056 586.339C659.922 586.339 664.047 585.193 666.431 582.902 668.814 580.61 670.006 576.898 670.006 571.764ZM413.006 394.114 451.506 394.114 451.506 546.464 413.006 546.464ZM573.431 391.914C591.581 391.914 606.247 397.643 617.431 409.102 628.614 420.56 634.206 436.556 634.206 457.089L634.206 546.464 595.706 546.464 595.706 462.314C595.706 450.214 592.681 440.91 586.631 434.402 580.581 427.893 572.331 424.639 561.881 424.639 551.247 424.639 542.86 427.893 536.718 434.402 530.577 440.91 527.506 450.214 527.506 462.314L527.506 546.464 489.006 546.464 489.006 394.114 527.506 394.114 527.506 413.089C532.639 406.489 539.193 401.31 547.168 397.552 555.143 393.793 563.897 391.914 573.431 391.914ZM315.431 391.914C333.581 391.914 348.247 397.643 359.431 409.102 370.614 420.56 376.206 436.556 376.206 457.089L376.206 546.464 337.706 546.464 337.706 462.314C337.706 450.214 334.681 440.91 328.631 434.402 322.581 427.893 314.331 424.639 303.881 424.639 293.247 424.639 284.86 427.893 278.718 434.402 272.577 440.91 269.506 450.214 269.506 462.314L269.506 546.464 231.006 546.464 231.006 394.114 269.506 394.114 269.506 413.089C274.639 406.489 281.193 401.31 289.168 397.552 297.143 393.793 305.897 391.914 315.431 391.914ZM1600.56 391.639C1618.71 391.639 1633.19 396.177 1644.01 405.252 1654.82 414.327 1660.78 426.564 1661.88 441.964L1625.03 441.964C1624.48 435.914 1621.96 431.102 1617.47 427.527 1612.98 423.952 1606.97 422.164 1599.46 422.164 1592.49 422.164 1587.13 423.448 1583.37 426.014 1579.61 428.581 1577.73 432.156 1577.73 436.739 1577.73 441.873 1580.3 445.768 1585.43 448.427 1590.56 451.085 1598.54 453.789 1609.36 456.539 1620.36 459.289 1629.43 462.131 1636.58 465.064 1643.73 467.998 1649.92 472.535 1655.14 478.677 1660.37 484.818 1663.07 492.931 1663.26 503.014 1663.26 511.814 1660.83 519.698 1655.97 526.664 1651.11 533.631 1644.14 539.085 1635.07 543.027 1625.99 546.969 1615.41 548.939 1603.31 548.939 1590.84 548.939 1579.66 546.693 1569.76 542.202 1559.86 537.71 1552.02 531.614 1546.24 523.914 1540.47 516.214 1537.31 507.689 1536.76 498.339L1575.53 498.339C1576.26 504.206 1579.15 509.064 1584.19 512.914 1589.23 516.764 1595.51 518.689 1603.03 518.689 1610.36 518.689 1616.09 517.223 1620.22 514.289 1624.34 511.356 1626.41 507.598 1626.41 503.014 1626.41 498.064 1623.88 494.352 1618.84 491.877 1613.8 489.402 1605.78 486.698 1594.78 483.764 1583.41 481.014 1574.11 478.173 1566.87 475.239 1559.63 472.306 1553.39 467.814 1548.17 461.764 1542.94 455.714 1540.33 447.556 1540.33 437.289 1540.33 428.856 1542.76 421.156 1547.62 414.189 1552.48 407.223 1559.44 401.723 1568.52 397.689 1577.59 393.656 1588.27 391.639 1600.56 391.639ZM1346.56 391.639C1361.04 391.639 1374.01 394.756 1385.47 400.989 1396.93 407.223 1405.82 416.068 1412.14 427.527 1418.47 438.985 1421.63 452.139 1421.63 466.989 1421.63 472.489 1421.26 477.439 1420.53 481.839L1309.16 481.839C1310.07 492.839 1313.92 501.456 1320.71 507.689 1327.49 513.923 1335.83 517.039 1345.73 517.039 1360.03 517.039 1370.21 510.898 1376.26 498.614L1417.78 498.614C1413.38 513.281 1404.95 525.335 1392.48 534.777 1380.01 544.219 1364.71 548.939 1346.56 548.939 1331.89 548.939 1318.73 545.685 1307.09 539.177 1295.45 532.668 1286.38 523.456 1279.87 511.539 1273.36 499.623 1270.11 485.873 1270.11 470.289 1270.11 454.523 1273.31 440.681 1279.73 428.764 1286.15 416.848 1295.13 407.681 1306.68 401.264 1318.23 394.848 1331.52 391.639 1346.56 391.639ZM998.456 391.639C1017.34 391.639 1032.97 396.36 1045.34 405.802 1057.72 415.243 1066.01 428.489 1070.23 445.539L1028.71 445.539C1026.51 438.939 1022.79 433.76 1017.57 430.002 1012.34 426.243 1005.88 424.364 998.181 424.364 987.181 424.364 978.472 428.352 972.056 436.327 965.639 444.302 962.431 455.623 962.431 470.289 962.431 484.773 965.639 496.002 972.056 503.977 978.472 511.952 987.181 515.939 998.181 515.939 1013.76 515.939 1023.94 508.973 1028.71 495.039L1070.23 495.039C1066.01 511.539 1057.67 524.648 1045.21 534.364 1032.74 544.081 1017.16 548.939 998.456 548.939 983.789 548.939 970.772 545.685 959.406 539.177 948.039 532.668 939.147 523.502 932.731 511.677 926.314 499.852 923.106 486.056 923.106 470.289 923.106 454.523 926.314 440.727 932.731 428.902 939.147 417.077 948.039 407.91 959.406 401.402 970.772 394.893 983.789 391.639 998.456 391.639ZM806.681 391.639C818.047 391.639 827.993 393.931 836.518 398.514 845.043 403.098 851.872 408.873 857.006 415.839L857.006 394.114 895.781 394.114 895.781 546.464 857.006 546.464 857.006 524.189C852.056 531.339 845.227 537.252 836.518 541.927 827.81 546.602 817.772 548.939 806.406 548.939 793.572 548.939 781.885 545.639 771.343 539.039 760.802 532.439 752.46 523.135 746.318 511.127 740.177 499.118 737.106 485.323 737.106 469.739 737.106 454.339 740.177 440.681 746.318 428.764 752.46 416.848 760.802 407.681 771.343 401.264 781.885 394.848 793.664 391.639 806.681 391.639ZM1098.01 342.964 1136.51 342.964 1136.51 413.089C1141.46 406.489 1148.06 401.31 1156.31 397.552 1164.56 393.793 1173.72 391.914 1183.81 391.914 1195.36 391.914 1205.62 394.435 1214.61 399.477 1223.59 404.518 1230.6 411.943 1235.64 421.752 1240.68 431.56 1243.21 443.339 1243.21 457.089L1243.21 546.464 1204.71 546.464 1204.71 462.314C1204.71 450.214 1201.68 440.91 1195.63 434.402 1189.58 427.893 1181.33 424.639 1170.88 424.639 1160.25 424.639 1151.86 427.893 1145.72 434.402 1139.58 440.91 1136.51 450.214 1136.51 462.314L1136.51 546.464 1098.01 546.464ZM1518.21 332.789 1518.21 365.239C1508.86 365.056 1502.35 366.614 1498.68 369.914 1495.01 373.214 1493.18 379.173 1493.18 387.789L1493.18 394.114 1519.86 394.114 1519.86 425.739 1493.18 425.739 1493.18 546.464 1454.13 546.464 1454.13 425.739 1436.81 425.739 1436.81 394.114 1454.13 394.114 1454.13 386.414C1454.13 367.714 1459.45 353.964 1470.08 345.164 1480.71 336.364 1496.76 332.239 1518.21 332.789ZM689.531 330.864C696.314 330.864 701.906 333.018 706.306 337.327 710.706 341.635 712.906 346.998 712.906 353.414 712.906 359.831 710.706 365.193 706.306 369.502 701.906 373.81 696.314 375.964 689.531 375.964 682.564 375.964 676.835 373.81 672.343 369.502 667.852 365.193 665.606 359.831 665.606 353.414 665.606 346.998 667.852 341.635 672.343 337.327 676.835 333.018 682.564 330.864 689.531 330.864ZM432.531 330.864C439.314 330.864 444.952 333.018 449.443 337.327 453.935 341.635 456.181 346.998 456.181 353.414 456.181 359.831 453.935 365.193 449.443 369.502 444.952 373.81 439.314 375.964 432.531 375.964 425.747 375.964 420.11 373.81 415.618 369.502 411.127 365.193 408.881 359.831 408.881 353.414 408.881 346.998 411.127 341.635 415.618 337.327 420.11 333.018 425.747 330.864 432.531 330.864Z" fill="url(#fill0)" fill-rule="evenodd"/><text fill="#000000" fill-opacity="0" font-family="Arial,Arial_MSFontService,sans-serif" font-size="288.2" x="231.006" y="583.039">ninjachefs</text><path d="M1673 398.428 1694.85 398.428 1694.85 401.35C1694.85 408.918 1699.47 415.411 1706.06 418.185L1711.35 419.248 1711.35 436 1695.58 436 1695.58 412.934 1673 412.934ZM1744.88 356.352C1746.89 356.352 1748.78 356.854 1750.54 357.856 1752.29 358.859 1753.69 360.299 1754.72 362.175 1755.75 364.052 1756.27 366.301 1756.27 368.924 1756.27 371.546 1755.75 373.795 1754.72 375.672 1753.69 377.548 1752.29 378.988 1750.54 379.991 1748.78 380.993 1746.89 381.495 1744.88 381.495 1742.92 381.495 1741.07 380.98 1739.34 379.952 1737.61 378.924 1736.21 377.445 1735.15 375.517 1734.09 373.589 1733.56 371.34 1733.56 368.769 1733.56 366.199 1734.09 363.975 1735.15 362.098 1736.21 360.221 1737.59 358.795 1739.3 357.818 1741 356.841 1742.86 356.352 1744.88 356.352ZM1776.94 347.561 1776.94 390.286 1787.79 390.286 1787.79 347.561ZM1742.09 346.866C1738.42 346.866 1735.1 347.766 1732.13 349.566 1729.16 351.365 1726.81 353.936 1725.08 357.278 1723.35 360.62 1722.48 364.45 1722.48 368.769 1722.48 373.14 1723.35 377.009 1725.08 380.376 1726.81 383.744 1729.16 386.353 1732.13 388.204 1735.1 390.055 1738.39 390.98 1742.01 390.98 1745.21 390.98 1748.04 390.325 1750.5 389.014 1752.95 387.703 1754.88 386.045 1756.27 384.039L1756.27 390.286 1767.2 390.286 1767.2 347.561 1756.27 347.561 1756.27 353.653C1754.82 351.699 1752.9 350.08 1750.5 348.794 1748.09 347.509 1745.29 346.866 1742.09 346.866ZM1782.44 329.822C1780.53 329.822 1778.94 330.426 1777.67 331.635 1776.41 332.843 1775.77 334.347 1775.77 336.146 1775.77 337.946 1776.41 339.45 1777.67 340.658 1778.94 341.866 1780.53 342.47 1782.44 342.47 1784.35 342.47 1785.94 341.866 1787.21 340.658 1788.47 339.45 1789.1 337.946 1789.1 336.146 1789.1 334.347 1788.47 332.843 1787.21 331.635 1785.94 330.426 1784.35 329.822 1782.44 329.822ZM1713.21 310 1786.64 310C1796.78 310 1805 318.18 1805 328.27L1805 401.35C1805 411.441 1796.78 419.621 1786.64 419.621L1713.21 419.621 1711.35 419.248 1711.35 412.934 1733.93 412.934 1733.93 398.428 1711.35 398.428 1711.35 375.362 1695.58 375.362 1695.58 398.428 1694.85 398.428 1694.85 328.27C1694.85 318.18 1703.07 310 1713.21 310Z" fill="url(#fill1)" fill-rule="evenodd"/></g></svg>