<svg width="790" height="189" xmlns="http://www.w3.org/2000/svg" xmlns:xlink="http://www.w3.org/1999/xlink" xml:space="preserve" overflow="hidden"><defs><clipPath id="clip0"><rect x="246" y="165" width="790" height="189"/></clipPath><linearGradient x1="605.237" y1="111.307" x2="668.542" y2="405.693" gradientUnits="userSpaceOnUse" spreadMethod="reflect" id="fill1"><stop offset="0" stop-color="#00CC99"/><stop offset="0.0222222" stop-color="#00CB98"/><stop offset="0.0444444" stop-color="#00CB98"/><stop offset="0.0666667" stop-color="#00CB98"/><stop offset="0.0888889" stop-color="#00CB98"/><stop offset="0.111111" stop-color="#00CB98"/><stop offset="0.133333" stop-color="#00CA98"/><stop offset="0.155556" stop-color="#00CA97"/><stop offset="0.177778" stop-color="#00CA97"/><stop offset="0.2" stop-color="#00C997"/><stop offset="0.222222" stop-color="#00C996"/><stop offset="0.244444" stop-color="#00C896"/><stop offset="0.266667" stop-color="#00C895"/><stop offset="0.288889" stop-color="#00C795"/><stop offset="0.311111" stop-color="#00C694"/><stop offset="0.333333" stop-color="#00C694"/><stop offset="0.355556" stop-color="#00C593"/><stop offset="0.377778" stop-color="#00C493"/><stop offset="0.4" stop-color="#00C392"/><stop offset="0.422222" stop-color="#00C291"/><stop offset="0.444444" stop-color="#00C191"/><stop offset="0.466667" stop-color="#00C090"/><stop offset="0.488889" stop-color="#00BF8F"/><stop offset="0.511111" stop-color="#00BE8E"/><stop offset="0.533333" stop-color="#00BD8D"/><stop offset="0.555556" stop-color="#00BC8D"/><stop offset="0.577778" stop-color="#00BB8C"/><stop offset="0.6" stop-color="#00BA8B"/><stop offset="0.622222" stop-color="#00B98A"/><stop offset="0.644444" stop-color="#00B789"/><stop offset="0.666667" stop-color="#00B688"/><stop offset="0.688889" stop-color="#00B587"/><stop offset="0.711111" stop-color="#00B386"/><stop offset="0.733333" stop-color="#00B284"/><stop offset="0.755556" stop-color="#00B083"/><stop offset="0.777778" stop-color="#00AF82"/><stop offset="0.8" stop-color="#00AD81"/><stop offset="0.822222" stop-color="#00AC80"/><stop offset="0.844444" stop-color="#00AA7E"/><stop offset="0.866667" stop-color="#00A87D"/><stop offset="0.888889" stop-color="#00A77C"/><stop offset="0.911111" stop-color="#00A57A"/><stop offset="0.933333" stop-color="#00A379"/><stop offset="0.955556" stop-color="#00A177"/><stop offset="0.977778" stop-color="#009F76"/><stop offset="1" stop-color="#009E75"/></linearGradient><linearGradient x1="605.237" y1="111.307" x2="668.542" y2="405.693" gradientUnits="userSpaceOnUse" spreadMethod="reflect" id="fill2"><stop offset="0" stop-color="#00CC99"/><stop offset="0.0222222" stop-color="#00CB98"/><stop offset="0.0444444" stop-color="#00CB98"/><stop offset="0.0666667" stop-color="#00CB98"/><stop offset="0.0888889" stop-color="#00CB98"/><stop offset="0.111111" stop-color="#00CB98"/><stop offset="0.133333" stop-color="#00CA98"/><stop offset="0.155556" stop-color="#00CA97"/><stop offset="0.177778" stop-color="#00CA97"/><stop offset="0.2" stop-color="#00C997"/><stop offset="0.222222" stop-color="#00C996"/><stop offset="0.244444" stop-color="#00C896"/><stop offset="0.266667" stop-color="#00C895"/><stop offset="0.288889" stop-color="#00C795"/><stop offset="0.311111" stop-color="#00C694"/><stop offset="0.333333" stop-color="#00C694"/><stop offset="0.355556" stop-color="#00C593"/><stop offset="0.377778" stop-color="#00C493"/><stop offset="0.4" stop-color="#00C392"/><stop offset="0.422222" stop-color="#00C291"/><stop offset="0.444444" stop-color="#00C191"/><stop offset="0.466667" stop-color="#00C090"/><stop offset="0.488889" stop-color="#00BF8F"/><stop offset="0.511111" stop-color="#00BE8E"/><stop offset="0.533333" stop-color="#00BD8D"/><stop offset="0.555556" stop-color="#00BC8D"/><stop offset="0.577778" stop-color="#00BB8C"/><stop offset="0.6" stop-color="#00BA8B"/><stop offset="0.622222" stop-color="#00B98A"/><stop offset="0.644444" stop-color="#00B789"/><stop offset="0.666667" stop-color="#00B688"/><stop offset="0.688889" stop-color="#00B587"/><stop offset="0.711111" stop-color="#00B386"/><stop offset="0.733333" stop-color="#00B284"/><stop offset="0.755556" stop-color="#00B083"/><stop offset="0.777778" stop-color="#00AF82"/><stop offset="0.8" stop-color="#00AD81"/><stop offset="0.822222" stop-color="#00AC80"/><stop offset="0.844444" stop-color="#00AA7E"/><stop offset="0.866667" stop-color="#00A87D"/><stop offset="0.888889" stop-color="#00A77C"/><stop offset="0.911111" stop-color="#00A57A"/><stop offset="0.933333" stop-color="#00A379"/><stop offset="0.955556" stop-color="#00A177"/><stop offset="0.977778" stop-color="#009F76"/><stop offset="1" stop-color="#009E75"/></linearGradient></defs><g clip-path="url(#clip0)" transform="translate(-246 -165)"><path d="M561.032 243.178C557.704 243.178 554.632 243.989 551.816 245.61 549 247.231 546.718 249.599 544.968 252.714 543.219 255.829 542.344 259.519 542.344 263.786 542.344 268.053 543.219 271.786 544.968 274.986 546.718 278.186 549.022 280.639 551.88 282.346 554.739 284.053 557.79 284.906 561.032 284.906 564.36 284.906 567.475 284.074 570.376 282.41 573.278 280.746 575.582 278.357 577.288 275.242 578.995 272.127 579.848 268.394 579.848 264.042 579.848 259.69 578.995 255.957 577.288 252.842 575.582 249.727 573.278 247.338 570.376 245.674 567.475 244.01 564.36 243.178 561.032 243.178ZM808.112 242.154C803.675 242.154 799.942 243.498 796.912 246.186 793.883 248.874 792.027 252.607 791.344 257.386L825.008 257.386C824.923 252.778 823.259 249.087 820.016 246.314 816.774 243.541 812.806 242.154 808.112 242.154ZM492.648 228.586 510.568 228.586 510.568 311.146C510.568 318.997 508.627 324.65 504.744 328.106 500.862 331.562 495.294 333.29 488.04 333.29L480.104 333.29 480.104 318.058 485.224 318.058C487.955 318.058 489.875 317.525 490.984 316.458 492.094 315.391 492.648 313.663 492.648 311.274ZM372.648 228.586 390.568 228.586 390.568 299.498 372.648 299.498ZM446.944 227.562C455.392 227.562 462.219 230.229 467.424 235.562 472.63 240.895 475.232 248.341 475.232 257.898L475.232 299.498 457.312 299.498 457.312 260.33C457.312 254.698 455.904 250.367 453.088 247.338 450.272 244.309 446.432 242.794 441.568 242.794 436.619 242.794 432.715 244.309 429.856 247.338 426.998 250.367 425.568 254.698 425.568 260.33L425.568 299.498 407.648 299.498 407.648 228.586 425.568 228.586 425.568 237.418C427.958 234.346 431.008 231.935 434.72 230.186 438.432 228.437 442.507 227.562 446.944 227.562ZM326.944 227.562C335.392 227.562 342.219 230.229 347.424 235.562 352.63 240.895 355.232 248.341 355.232 257.898L355.232 299.498 337.312 299.498 337.312 260.33C337.312 254.698 335.904 250.367 333.088 247.338 330.272 244.309 326.432 242.794 321.568 242.794 316.619 242.794 312.715 244.309 309.856 247.338 306.998 250.367 305.568 254.698 305.568 260.33L305.568 299.498 287.648 299.498 287.648 228.586 305.568 228.586 305.568 237.418C307.958 234.346 311.008 231.935 314.72 230.186 318.432 228.437 322.507 227.562 326.944 227.562ZM926.504 227.434C934.952 227.434 941.694 229.546 946.728 233.77 951.763 237.994 954.536 243.69 955.048 250.858L937.896 250.858C937.64 248.042 936.467 245.802 934.376 244.138 932.286 242.474 929.491 241.642 925.992 241.642 922.75 241.642 920.254 242.239 918.504 243.434 916.755 244.629 915.88 246.293 915.88 248.426 915.88 250.815 917.075 252.629 919.464 253.866 921.854 255.103 925.566 256.362 930.6 257.642 935.72 258.922 939.944 260.245 943.272 261.61 946.6 262.975 949.48 265.087 951.912 267.946 954.344 270.805 955.603 274.581 955.688 279.274 955.688 283.37 954.558 287.039 952.296 290.282 950.035 293.525 946.792 296.063 942.568 297.898 938.344 299.733 933.416 300.65 927.784 300.65 921.982 300.65 916.776 299.605 912.168 297.514 907.56 295.423 903.912 292.586 901.224 289.002 898.536 285.418 897.064 281.45 896.808 277.098L914.856 277.098C915.198 279.829 916.542 282.09 918.888 283.882 921.235 285.674 924.158 286.57 927.656 286.57 931.07 286.57 933.736 285.887 935.656 284.522 937.576 283.157 938.536 281.407 938.536 279.274 938.536 276.97 937.363 275.242 935.016 274.09 932.67 272.938 928.936 271.679 923.816 270.314 918.526 269.034 914.195 267.711 910.824 266.346 907.454 264.981 904.552 262.89 902.12 260.074 899.688 257.258 898.472 253.461 898.472 248.682 898.472 244.757 899.603 241.173 901.864 237.93 904.126 234.687 907.368 232.127 911.592 230.25 915.816 228.373 920.787 227.434 926.504 227.434ZM808.624 227.434C815.366 227.434 821.403 228.885 826.736 231.786 832.07 234.687 836.208 238.805 839.152 244.138 842.096 249.471 843.568 255.594 843.568 262.506 843.568 265.066 843.398 267.37 843.056 269.418L791.216 269.418C791.643 274.538 793.435 278.549 796.592 281.45 799.75 284.351 803.632 285.802 808.24 285.802 814.896 285.802 819.632 282.943 822.448 277.226L841.776 277.226C839.728 284.053 835.803 289.663 830 294.058 824.198 298.453 817.072 300.65 808.624 300.65 801.798 300.65 795.675 299.135 790.256 296.106 784.838 293.077 780.614 288.789 777.584 283.242 774.555 277.695 773.04 271.295 773.04 264.042 773.04 256.703 774.534 250.261 777.52 244.714 780.507 239.167 784.688 234.901 790.064 231.914 795.44 228.927 801.627 227.434 808.624 227.434ZM646.112 227.434C654.902 227.434 662.176 229.631 667.936 234.026 673.696 238.421 677.558 244.586 679.52 252.522L660.192 252.522C659.168 249.45 657.44 247.039 655.008 245.29 652.576 243.541 649.568 242.666 645.984 242.666 640.864 242.666 636.811 244.522 633.824 248.234 630.838 251.946 629.344 257.215 629.344 264.042 629.344 270.783 630.838 276.01 633.824 279.722 636.811 283.434 640.864 285.29 645.984 285.29 653.238 285.29 657.974 282.047 660.192 275.562L679.52 275.562C677.558 283.242 673.675 289.343 667.872 293.866 662.07 298.389 654.816 300.65 646.112 300.65 639.286 300.65 633.227 299.135 627.936 296.106 622.646 293.077 618.507 288.81 615.52 283.306 612.534 277.802 611.04 271.381 611.04 264.042 611.04 256.703 612.534 250.282 615.52 244.778 618.507 239.274 622.646 235.007 627.936 231.978 633.227 228.949 639.286 227.434 646.112 227.434ZM556.424 227.434C561.715 227.434 566.344 228.501 570.312 230.634 574.28 232.767 577.459 235.455 579.848 238.698L579.848 228.586 597.896 228.586 597.896 299.498 579.848 299.498 579.848 289.13C577.544 292.458 574.366 295.21 570.312 297.386 566.259 299.562 561.587 300.65 556.296 300.65 550.323 300.65 544.883 299.114 539.976 296.042 535.07 292.97 531.187 288.639 528.328 283.05 525.47 277.461 524.04 271.039 524.04 263.786 524.04 256.618 525.47 250.261 528.328 244.714 531.187 239.167 535.07 234.901 539.976 231.914 544.883 228.927 550.366 227.434 556.424 227.434ZM692.648 204.778 710.568 204.778 710.568 237.418C712.872 234.346 715.944 231.935 719.784 230.186 723.624 228.437 727.891 227.562 732.584 227.562 737.96 227.562 742.739 228.735 746.92 231.082 751.102 233.429 754.366 236.885 756.712 241.45 759.059 246.015 760.232 251.498 760.232 257.898L760.232 299.498 742.312 299.498 742.312 260.33C742.312 254.698 740.904 250.367 738.088 247.338 735.272 244.309 731.432 242.794 726.568 242.794 721.619 242.794 717.715 244.309 714.856 247.338 711.998 250.367 710.568 254.698 710.568 260.33L710.568 299.498 692.648 299.498ZM888.392 200.042 888.392 215.146C884.04 215.061 881.011 215.786 879.304 217.322 877.598 218.858 876.744 221.631 876.744 225.642L876.744 228.586 889.16 228.586 889.16 243.306 876.744 243.306 876.744 299.498 858.568 299.498 858.568 243.306 850.504 243.306 850.504 228.586 858.568 228.586 858.568 225.002C858.568 216.298 861.043 209.898 865.992 205.802 870.942 201.706 878.408 199.786 888.392 200.042ZM501.736 199.146C504.894 199.146 507.496 200.149 509.544 202.154 511.592 204.159 512.616 206.655 512.616 209.642 512.616 212.629 511.592 215.125 509.544 217.13 507.496 219.135 504.894 220.138 501.736 220.138 498.494 220.138 495.827 219.135 493.736 217.13 491.646 215.125 490.6 212.629 490.6 209.642 490.6 206.655 491.646 204.159 493.736 202.154 495.827 200.149 498.494 199.146 501.736 199.146ZM381.736 199.146C384.894 199.146 387.518 200.149 389.608 202.154 391.699 204.159 392.744 206.655 392.744 209.642 392.744 212.629 391.699 215.125 389.608 217.13 387.518 219.135 384.894 220.138 381.736 220.138 378.579 220.138 375.955 219.135 373.864 217.13 371.774 215.125 370.728 212.629 370.728 209.642 370.728 206.655 371.774 204.159 373.864 202.154 375.955 200.149 378.579 199.146 381.736 199.146Z" fill="url(#fill1)" fill-rule="evenodd"/><text fill="#000000" fill-opacity="0" font-family="Arial,Arial_MSFontService,sans-serif" font-size="134.144" x="287.648" y="316.522">ninjachefs</text><path d="M978.501 279.402C981.658 279.402 984.261 280.405 986.309 282.41 988.357 284.415 989.381 286.911 989.381 289.898 989.381 292.885 988.357 295.381 986.309 297.386 984.261 299.391 981.658 300.394 978.501 300.394 975.258 300.394 972.592 299.391 970.501 297.386 968.41 295.381 967.365 292.885 967.365 289.898 967.365 286.911 968.41 284.415 970.501 282.41 972.592 280.405 975.258 279.402 978.501 279.402Z" fill="url(#fill2)" fill-rule="evenodd"/><text fill="#000000" fill-opacity="0" font-family="Arial,Arial_MSFontService,sans-serif" font-size="20.992" x="967.365" y="297.77">.</text></g></svg>