<svg width="1671" height="367" xmlns="http://www.w3.org/2000/svg" xmlns:xlink="http://www.w3.org/1999/xlink" xml:space="preserve" overflow="hidden"><defs><linearGradient x1="873.135" y1="140.496" x2="1014.73" y2="768.575" gradientUnits="userSpaceOnUse" spreadMethod="reflect" id="fill0"><stop offset="0" stop-color="#00CC99"/><stop offset="0.0222222" stop-color="#00CB98"/><stop offset="0.0444444" stop-color="#00CB98"/><stop offset="0.0666667" stop-color="#00CB98"/><stop offset="0.0888889" stop-color="#00CB98"/><stop offset="0.111111" stop-color="#00CB98"/><stop offset="0.133333" stop-color="#00CA98"/><stop offset="0.155556" stop-color="#00CA97"/><stop offset="0.177778" stop-color="#00CA97"/><stop offset="0.2" stop-color="#00C997"/><stop offset="0.222222" stop-color="#00C996"/><stop offset="0.244444" stop-color="#00C896"/><stop offset="0.266667" stop-color="#00C895"/><stop offset="0.288889" stop-color="#00C795"/><stop offset="0.311111" stop-color="#00C694"/><stop offset="0.333333" stop-color="#00C694"/><stop offset="0.355556" stop-color="#00C593"/><stop offset="0.377778" stop-color="#00C493"/><stop offset="0.4" stop-color="#00C392"/><stop offset="0.422222" stop-color="#00C291"/><stop offset="0.444444" stop-color="#00C191"/><stop offset="0.466667" stop-color="#00C090"/><stop offset="0.488889" stop-color="#00BF8F"/><stop offset="0.511111" stop-color="#00BE8E"/><stop offset="0.533333" stop-color="#00BD8D"/><stop offset="0.555556" stop-color="#00BC8D"/><stop offset="0.577778" stop-color="#00BB8C"/><stop offset="0.6" stop-color="#00BA8B"/><stop offset="0.622222" stop-color="#00B98A"/><stop offset="0.644444" stop-color="#00B789"/><stop offset="0.666667" stop-color="#00B688"/><stop offset="0.688889" stop-color="#00B587"/><stop offset="0.711111" stop-color="#00B386"/><stop offset="0.733333" stop-color="#00B284"/><stop offset="0.755556" stop-color="#00B083"/><stop offset="0.777778" stop-color="#00AF82"/><stop offset="0.8" stop-color="#00AD81"/><stop offset="0.822222" stop-color="#00AC80"/><stop offset="0.844444" stop-color="#00AA7E"/><stop offset="0.866667" stop-color="#00A87D"/><stop offset="0.888889" stop-color="#00A77C"/><stop offset="0.911111" stop-color="#00A57A"/><stop offset="0.933333" stop-color="#00A379"/><stop offset="0.955556" stop-color="#00A177"/><stop offset="0.977778" stop-color="#009F76"/><stop offset="1" stop-color="#009E75"/></linearGradient><linearGradient x1="1669.01" y1="277.005" x2="1850.99" y2="456.995" gradientUnits="userSpaceOnUse" spreadMethod="reflect" id="fill1"><stop offset="0" stop-color="#00CC99"/><stop offset="0.0222222" stop-color="#00CB98"/><stop offset="0.0444444" stop-color="#00CB98"/><stop offset="0.0666667" stop-color="#00CB98"/><stop offset="0.0888889" stop-color="#00CB98"/><stop offset="0.111111" stop-color="#00CB98"/><stop offset="0.133333" stop-color="#00CA98"/><stop offset="0.155556" stop-color="#00CA97"/><stop offset="0.177778" stop-color="#00CA97"/><stop offset="0.2" stop-color="#00C997"/><stop offset="0.222222" stop-color="#00C996"/><stop offset="0.244444" stop-color="#00C896"/><stop offset="0.266667" stop-color="#00C895"/><stop offset="0.288889" stop-color="#00C795"/><stop offset="0.311111" stop-color="#00C694"/><stop offset="0.333333" stop-color="#00C694"/><stop offset="0.355556" stop-color="#00C593"/><stop offset="0.377778" stop-color="#00C493"/><stop offset="0.4" stop-color="#00C392"/><stop offset="0.422222" stop-color="#00C291"/><stop offset="0.444444" stop-color="#00C191"/><stop offset="0.466667" stop-color="#00C090"/><stop offset="0.488889" stop-color="#00BF8F"/><stop offset="0.511111" stop-color="#00BE8E"/><stop offset="0.533333" stop-color="#00BD8D"/><stop offset="0.555556" stop-color="#00BC8D"/><stop offset="0.577778" stop-color="#00BB8C"/><stop offset="0.6" stop-color="#00BA8B"/><stop offset="0.622222" stop-color="#00B98A"/><stop offset="0.644444" stop-color="#00B789"/><stop offset="0.666667" stop-color="#00B688"/><stop offset="0.688889" stop-color="#00B587"/><stop offset="0.711111" stop-color="#00B386"/><stop offset="0.733333" stop-color="#00B284"/><stop offset="0.755556" stop-color="#00B083"/><stop offset="0.777778" stop-color="#00AF82"/><stop offset="0.8" stop-color="#00AD81"/><stop offset="0.822222" stop-color="#00AC80"/><stop offset="0.844444" stop-color="#00AA7E"/><stop offset="0.866667" stop-color="#00A87D"/><stop offset="0.888889" stop-color="#00A77C"/><stop offset="0.911111" stop-color="#00A57A"/><stop offset="0.933333" stop-color="#00A379"/><stop offset="0.955556" stop-color="#00A177"/><stop offset="0.977778" stop-color="#009F76"/><stop offset="1" stop-color="#009E75"/></linearGradient></defs><g transform="translate(-179 -273)"><path d="M816.581 421.536C809.431 421.536 802.831 423.277 796.781 426.761 790.731 430.244 785.827 435.331 782.068 442.023 778.31 448.715 776.431 456.644 776.431 465.811 776.431 474.977 778.31 482.998 782.068 489.873 785.827 496.748 790.777 502.019 796.918 505.686 803.06 509.352 809.614 511.186 816.581 511.186 823.731 511.186 830.422 509.398 836.656 505.823 842.889 502.248 847.839 497.115 851.506 490.423 855.172 483.731 857.006 475.711 857.006 466.361 857.006 457.011 855.172 448.99 851.506 442.298 847.839 435.606 842.889 430.473 836.656 426.898 830.422 423.323 823.731 421.536 816.581 421.536ZM1345.46 419.336C1335.92 419.336 1327.9 422.223 1321.39 427.998 1314.88 433.773 1310.9 441.794 1309.43 452.061L1381.76 452.061C1381.57 442.161 1378 434.231 1371.03 428.273 1364.06 422.315 1355.54 419.336 1345.46 419.336ZM670.006 390.186 708.506 390.186 708.506 567.561C708.506 584.427 704.335 596.573 695.993 603.998 687.652 611.423 675.689 615.136 660.106 615.136L643.056 615.136 643.056 582.411 654.056 582.411C659.922 582.411 664.047 581.265 666.431 578.973 668.814 576.681 670.006 572.969 670.006 567.836ZM413.006 390.186 451.506 390.186 451.506 542.536 413.006 542.536ZM573.431 387.986C591.581 387.986 606.247 393.715 617.431 405.173 628.614 416.631 634.206 432.627 634.206 453.161L634.206 542.536 595.706 542.536 595.706 458.386C595.706 446.286 592.681 436.981 586.631 430.473 580.581 423.965 572.331 420.711 561.881 420.711 551.247 420.711 542.86 423.965 536.718 430.473 530.577 436.981 527.506 446.286 527.506 458.386L527.506 542.536 489.006 542.536 489.006 390.186 527.506 390.186 527.506 409.161C532.639 402.561 539.193 397.381 547.168 393.623 555.143 389.865 563.897 387.986 573.431 387.986ZM315.431 387.986C333.581 387.986 348.247 393.715 359.431 405.173 370.614 416.631 376.206 432.627 376.206 453.161L376.206 542.536 337.706 542.536 337.706 458.386C337.706 446.286 334.681 436.981 328.631 430.473 322.581 423.965 314.331 420.711 303.881 420.711 293.247 420.711 284.86 423.965 278.718 430.473 272.577 436.981 269.506 446.286 269.506 458.386L269.506 542.536 231.006 542.536 231.006 390.186 269.506 390.186 269.506 409.161C274.639 402.561 281.193 397.381 289.168 393.623 297.143 389.865 305.897 387.986 315.431 387.986ZM1600.56 387.711C1618.71 387.711 1633.19 392.248 1644.01 401.323 1654.82 410.398 1660.78 422.636 1661.88 438.036L1625.03 438.036C1624.48 431.986 1621.96 427.173 1617.47 423.598 1612.98 420.023 1606.97 418.236 1599.46 418.236 1592.49 418.236 1587.13 419.519 1583.37 422.086 1579.61 424.652 1577.73 428.227 1577.73 432.811 1577.73 437.944 1580.3 441.84 1585.43 444.498 1590.56 447.156 1598.54 449.861 1609.36 452.611 1620.36 455.361 1629.43 458.202 1636.58 461.136 1643.73 464.069 1649.92 468.606 1655.14 474.748 1660.37 480.89 1663.07 489.002 1663.26 499.086 1663.26 507.886 1660.83 515.769 1655.97 522.736 1651.11 529.702 1644.14 535.156 1635.07 539.098 1625.99 543.04 1615.41 545.011 1603.31 545.011 1590.84 545.011 1579.66 542.765 1569.76 538.273 1559.86 533.781 1552.02 527.686 1546.24 519.986 1540.47 512.286 1537.31 503.761 1536.76 494.411L1575.53 494.411C1576.26 500.277 1579.15 505.136 1584.19 508.986 1589.23 512.836 1595.51 514.761 1603.03 514.761 1610.36 514.761 1616.09 513.294 1620.22 510.361 1624.34 507.427 1626.41 503.669 1626.41 499.086 1626.41 494.136 1623.88 490.423 1618.84 487.948 1613.8 485.473 1605.78 482.769 1594.78 479.836 1583.41 477.086 1574.11 474.244 1566.87 471.311 1559.63 468.377 1553.39 463.886 1548.17 457.836 1542.94 451.786 1540.33 443.627 1540.33 433.361 1540.33 424.927 1542.76 417.227 1547.62 410.261 1552.48 403.294 1559.44 397.794 1568.52 393.761 1577.59 389.727 1588.27 387.711 1600.56 387.711ZM1346.56 387.711C1361.04 387.711 1374.01 390.827 1385.47 397.061 1396.93 403.294 1405.82 412.14 1412.14 423.598 1418.47 435.056 1421.63 448.211 1421.63 463.061 1421.63 468.561 1421.26 473.511 1420.53 477.911L1309.16 477.911C1310.07 488.911 1313.92 497.527 1320.71 503.761 1327.49 509.994 1335.83 513.111 1345.73 513.111 1360.03 513.111 1370.21 506.969 1376.26 494.686L1417.78 494.686C1413.38 509.352 1404.95 521.406 1392.48 530.848 1380.01 540.29 1364.71 545.011 1346.56 545.011 1331.89 545.011 1318.73 541.756 1307.09 535.248 1295.45 528.74 1286.38 519.527 1279.87 507.611 1273.36 495.694 1270.11 481.944 1270.11 466.361 1270.11 450.594 1273.31 436.752 1279.73 424.836 1286.15 412.919 1295.13 403.752 1306.68 397.336 1318.23 390.919 1331.52 387.711 1346.56 387.711ZM998.456 387.711C1017.34 387.711 1032.97 392.431 1045.34 401.873 1057.72 411.315 1066.01 424.561 1070.23 441.611L1028.71 441.611C1026.51 435.011 1022.79 429.831 1017.57 426.073 1012.34 422.315 1005.88 420.436 998.181 420.436 987.181 420.436 978.472 424.423 972.056 432.398 965.639 440.373 962.431 451.694 962.431 466.361 962.431 480.844 965.639 492.073 972.056 500.048 978.472 508.023 987.181 512.011 998.181 512.011 1013.76 512.011 1023.94 505.044 1028.71 491.111L1070.23 491.111C1066.01 507.611 1057.67 520.719 1045.21 530.436 1032.74 540.152 1017.16 545.011 998.456 545.011 983.789 545.011 970.772 541.756 959.406 535.248 948.039 528.74 939.147 519.573 932.731 507.748 926.314 495.923 923.106 482.127 923.106 466.361 923.106 450.594 926.314 436.798 932.731 424.973 939.147 413.148 948.039 403.981 959.406 397.473 970.772 390.965 983.789 387.711 998.456 387.711ZM806.681 387.711C818.047 387.711 827.993 390.002 836.518 394.586 845.043 399.169 851.872 404.944 857.006 411.911L857.006 390.186 895.781 390.186 895.781 542.536 857.006 542.536 857.006 520.261C852.056 527.411 845.227 533.323 836.518 537.998 827.81 542.673 817.772 545.011 806.406 545.011 793.572 545.011 781.885 541.711 771.343 535.111 760.802 528.511 752.46 519.206 746.318 507.198 740.177 495.19 737.106 481.394 737.106 465.811 737.106 450.411 740.177 436.752 746.318 424.836 752.46 412.919 760.802 403.752 771.343 397.336 781.885 390.919 793.664 387.711 806.681 387.711ZM1098.01 339.036 1136.51 339.036 1136.51 409.161C1141.46 402.561 1148.06 397.381 1156.31 393.623 1164.56 389.865 1173.72 387.986 1183.81 387.986 1195.36 387.986 1205.62 390.506 1214.61 395.548 1223.59 400.59 1230.6 408.015 1235.64 417.823 1240.68 427.631 1243.21 439.411 1243.21 453.161L1243.21 542.536 1204.71 542.536 1204.71 458.386C1204.71 446.286 1201.68 436.981 1195.63 430.473 1189.58 423.965 1181.33 420.711 1170.88 420.711 1160.25 420.711 1151.86 423.965 1145.72 430.473 1139.58 436.981 1136.51 446.286 1136.51 458.386L1136.51 542.536 1098.01 542.536ZM1518.21 328.861 1518.21 361.311C1508.86 361.127 1502.35 362.686 1498.68 365.986 1495.01 369.286 1493.18 375.244 1493.18 383.861L1493.18 390.186 1519.86 390.186 1519.86 421.811 1493.18 421.811 1493.18 542.536 1454.13 542.536 1454.13 421.811 1436.81 421.811 1436.81 390.186 1454.13 390.186 1454.13 382.486C1454.13 363.786 1459.45 350.036 1470.08 341.236 1480.71 332.436 1496.76 328.311 1518.21 328.861ZM689.531 326.936C696.314 326.936 701.906 329.09 706.306 333.398 710.706 337.706 712.906 343.069 712.906 349.486 712.906 355.902 710.706 361.265 706.306 365.573 701.906 369.881 696.314 372.036 689.531 372.036 682.564 372.036 676.835 369.881 672.343 365.573 667.852 361.265 665.606 355.902 665.606 349.486 665.606 343.069 667.852 337.706 672.343 333.398 676.835 329.09 682.564 326.936 689.531 326.936ZM432.531 326.936C439.314 326.936 444.952 329.09 449.443 333.398 453.935 337.706 456.181 343.069 456.181 349.486 456.181 355.902 453.935 361.265 449.443 365.573 444.952 369.881 439.314 372.036 432.531 372.036 425.747 372.036 420.11 369.881 415.618 365.573 411.127 361.265 408.881 355.902 408.881 349.486 408.881 343.069 411.127 337.706 415.618 333.398 420.11 329.09 425.747 326.936 432.531 326.936Z" fill="url(#fill0)" fill-rule="evenodd"/><text fill="#000000" fill-opacity="0" font-family="Arial,Arial_MSFontService,sans-serif" font-size="288.2" x="231.006" y="579.111">ninjachefs</text><path d="M1698.69 406.067 1698.87 407.903C1701.23 419.459 1711.42 428.152 1723.63 428.152L1747.42 428.152 1747.42 428.452 1718.73 428.452 1718.73 458 1698.69 458 1698.69 428.452 1670 428.452 1670 409.87 1698.69 409.87ZM1755.08 337.897C1758.36 337.897 1761.44 338.721 1764.3 340.37 1767.17 342.018 1769.44 344.386 1771.13 347.471 1772.81 350.557 1773.66 354.256 1773.66 358.567 1773.66 362.878 1772.81 366.577 1771.13 369.663 1769.44 372.748 1767.17 375.115 1764.3 376.764 1761.44 378.413 1758.36 379.237 1755.08 379.237 1751.88 379.237 1748.86 378.391 1746.04 376.701 1743.22 375.01 1740.94 372.579 1739.22 369.409 1737.49 366.239 1736.63 362.54 1736.63 358.313 1736.63 354.086 1737.49 350.43 1739.22 347.344 1740.94 344.259 1743.2 341.913 1745.98 340.307 1748.76 338.7 1751.79 337.897 1755.08 337.897ZM1808.96 323.441 1808.96 393.693 1826.65 393.693 1826.65 323.441ZM1750.53 322.3C1744.55 322.3 1739.13 323.779 1734.29 326.738 1729.44 329.697 1725.61 333.924 1722.79 339.419 1719.97 344.914 1718.55 351.212 1718.55 358.313 1718.55 365.499 1719.97 371.861 1722.79 377.398 1725.61 382.935 1729.44 387.226 1734.29 390.269 1739.13 393.312 1744.5 394.834 1750.4 394.834 1755.63 394.834 1760.24 393.756 1764.24 391.601 1768.24 389.445 1771.38 386.718 1773.66 383.421L1773.66 393.693 1791.48 393.693 1791.48 323.441 1773.66 323.441 1773.66 333.459C1771.3 330.246 1768.16 327.583 1764.24 325.47 1760.32 323.356 1755.75 322.3 1750.53 322.3ZM1817.93 294.275C1814.82 294.275 1812.23 295.268 1810.16 297.255 1808.1 299.242 1807.07 301.714 1807.07 304.673 1807.07 307.632 1808.1 310.105 1810.16 312.092 1812.23 314.078 1814.82 315.072 1817.93 315.072 1821.05 315.072 1823.64 314.078 1825.71 312.092 1827.77 310.105 1828.8 307.632 1828.8 304.673 1828.8 301.714 1827.77 299.242 1825.71 297.255 1823.64 295.268 1821.05 294.275 1817.93 294.275ZM1723.63 276 1824.73 276C1838.68 276 1850 287.354 1850 301.359L1850 402.792C1850 416.798 1838.68 428.152 1824.73 428.152L1747.42 428.152 1747.42 409.87 1718.73 409.87 1718.73 380.323 1698.69 380.323 1698.69 406.067 1698.36 402.792 1698.36 301.359C1698.36 287.354 1709.68 276 1723.63 276Z" fill="url(#fill1)" fill-rule="evenodd"/></g></svg>